<svg width="965" height="415" viewBox="0 0 965 415" fill="none" xmlns="http://www.w3.org/2000/svg">
<path d="M381.754 313.438C380.568 313.438 379.381 313.269 378.109 313.269L377.94 313.438H381.754Z" stroke="#020203" stroke-width="0.5" stroke-miterlimit="10"/>
<path d="M378.109 313.184C379.296 313.184 380.483 313.353 381.754 313.353H377.94H204.354C146.294 313.353 98.9988 266.058 98.9988 207.998V204.353C98.9988 195.454 100.27 186.808 102.304 178.502C97.9817 194.182 95.6084 210.71 95.6084 227.747C95.6084 329.712 178.248 412.351 280.213 412.351H381.669H387.263C406.249 412.351 424.218 403.621 436.084 388.788L495.754 313.353L507.027 299.114L448.12 224.695L378.109 313.184Z" fill="url(#paint0_linear_169_243)"/>
<path d="M923.532 0H743.928H665.442H658.746C637.98 0 618.401 10.0863 605.432 26.2752L547.796 98.9982L507.112 150.362L566.02 224.695L665.526 98.9982H812.668L870.303 26.2752C883.272 10.0863 902.851 0 923.532 0Z" fill="url(#paint1_linear_169_243)"/>
<path d="M105.44 168.415C120.188 128.07 158.923 99.0827 204.353 99.0827H348.697H466.427L408.791 26.3597C395.823 10.1708 376.244 0.0844727 355.478 0.0844727H270.38H204.353C91.4547 0.0844727 0 91.6239 0 204.438V208.082C0 320.981 91.5394 412.436 204.353 412.436H280.212C178.248 412.436 95.6078 329.796 95.6078 227.831C95.6078 210.795 97.9811 194.267 102.304 178.586C103.236 175.111 104.253 171.721 105.44 168.415Z" fill="url(#paint2_linear_169_243)"/>
<path d="M923.615 0C902.849 0 883.27 10.0863 870.302 26.2752L812.666 98.9982L771.981 150.362L713.074 224.695L642.979 313.183L642.809 313.353L639.503 317.506L636.113 313.183L566.018 224.695L507.11 150.362L466.426 98.9982H348.696L448.203 224.695L507.11 299.114L518.383 313.353L578.053 388.788C578.901 389.805 579.749 390.738 580.681 391.755C581.19 392.263 581.698 392.772 582.207 393.281C582.207 393.281 582.207 393.281 582.291 393.365C588.394 399.722 595.683 404.638 603.735 407.859C605.769 408.707 607.973 409.385 610.092 409.978C619.077 412.945 629.078 414.724 639.758 414.724C651.285 414.724 662.134 412.69 671.712 409.215C677.475 407.35 682.9 404.553 687.901 401.078C688.579 400.57 689.257 400.146 689.935 399.637C690.528 399.214 691.037 398.79 691.63 398.366C695.444 395.315 698.75 392.009 701.377 388.449L760.708 313.523L771.981 299.283L830.889 224.865L930.395 99.1677L955.908 66.8746C977.352 39.7519 958.112 0 923.615 0Z" fill="url(#paint3_linear_169_243)"/>
<defs>
<linearGradient id="paint0_linear_169_243" x1="95.6338" y1="295.5" x2="507.138" y2="295.5" gradientUnits="userSpaceOnUse">
<stop offset="0.1488" stop-color="#90529B"/>
<stop offset="0.3367" stop-color="#7F3F91"/>
<stop offset="0.6055" stop-color="#7A3B8F"/>
<stop offset="1" stop-color="#5B328A"/>
</linearGradient>
<linearGradient id="paint1_linear_169_243" x1="507.139" y1="112.373" x2="923.573" y2="112.373" gradientUnits="userSpaceOnUse">
<stop stop-color="#71378C"/>
<stop offset="0.2965" stop-color="#6F368C"/>
<stop offset="0.6809" stop-color="#6A368C"/>
<stop offset="1" stop-color="#5C2E88"/>
</linearGradient>
<linearGradient id="paint2_linear_169_243" x1="43.2854" y1="339.689" x2="550.072" y2="-76.8086" gradientUnits="userSpaceOnUse">
<stop stop-color="#4F56A2"/>
<stop offset="0.1206" stop-color="#5772B6"/>
<stop offset="0.4095" stop-color="#3F97D3"/>
<stop offset="0.7789" stop-color="#45BBEC"/>
</linearGradient>
<linearGradient id="paint3_linear_169_243" x1="348.737" y1="207.368" x2="964.915" y2="207.368" gradientUnits="userSpaceOnUse">
<stop stop-color="#4F56A2"/>
<stop offset="0.1206" stop-color="#5062AB"/>
<stop offset="0.5201" stop-color="#36B1BD"/>
<stop offset="1" stop-color="#93CEBD"/>
</linearGradient>
</defs>
</svg>
